<svg aria-roledescription="er" role="graphics-document document" viewBox="0 0 193.542236328125 340.66668701171875" style="max-width: 193.542236328125px;" xmlns:xlink="http://www.w3.org/1999/xlink" xmlns="http://www.w3.org/2000/svg" width="100%" id="mermaid-1725325615911"><style>#mermaid-1725325615911{font-family:"trebuchet ms",verdana,arial,sans-serif;font-size:16px;fill:#333;}#mermaid-1725325615911 .error-icon{fill:#552222;}#mermaid-1725325615911 .error-text{fill:#552222;stroke:#552222;}#mermaid-1725325615911 .edge-thickness-normal{stroke-width:2px;}#mermaid-1725325615911 .edge-thickness-thick{stroke-width:3.5px;}#mermaid-1725325615911 .edge-pattern-solid{stroke-dasharray:0;}#mermaid-1725325615911 .edge-pattern-dashed{stroke-dasharray:3;}#mermaid-1725325615911 .edge-pattern-dotted{stroke-dasharray:2;}#mermaid-1725325615911 .marker{fill:#333333;stroke:#333333;}#mermaid-1725325615911 .marker.cross{stroke:#333333;}#mermaid-1725325615911 svg{font-family:"trebuchet ms",verdana,arial,sans-serif;font-size:16px;}#mermaid-1725325615911 .entityBox{fill:#ECECFF;stroke:#9370DB;}#mermaid-1725325615911 .attributeBoxOdd{fill:#ffffff;stroke:#9370DB;}#mermaid-1725325615911 .attributeBoxEven{fill:#f2f2f2;stroke:#9370DB;}#mermaid-1725325615911 .relationshipLabelBox{fill:hsl(80, 100%, 96.2745098039%);opacity:0.7;background-color:hsl(80, 100%, 96.2745098039%);}#mermaid-1725325615911 .relationshipLabelBox rect{opacity:0.5;}#mermaid-1725325615911 .relationshipLine{stroke:#333333;}#mermaid-1725325615911 .entityTitleText{text-anchor:middle;font-size:18px;fill:#333;}#mermaid-1725325615911 #MD_PARENT_START{fill:#f5f5f5!important;stroke:#333333!important;stroke-width:1;}#mermaid-1725325615911 #MD_PARENT_END{fill:#f5f5f5!important;stroke:#333333!important;stroke-width:1;}#mermaid-1725325615911 :root{--mermaid-font-family:"trebuchet ms",verdana,arial,sans-serif;}</style><g/><defs><marker orient="auto" markerHeight="240" markerWidth="190" refY="7" refX="0" id="MD_PARENT_START"><path d="M 18,7 L9,13 L1,7 L9,1 Z"/></marker></defs><defs><marker orient="auto" markerHeight="28" markerWidth="20" refY="7" refX="19" id="MD_PARENT_END"><path d="M 18,7 L9,13 L1,7 L9,1 Z"/></marker></defs><defs><marker orient="auto" markerHeight="18" markerWidth="18" refY="9" refX="0" id="ONLY_ONE_START"><path d="M9,0 L9,18 M15,0 L15,18" fill="none" stroke="gray"/></marker></defs><defs><marker orient="auto" markerHeight="18" markerWidth="18" refY="9" refX="18" id="ONLY_ONE_END"><path d="M3,0 L3,18 M9,0 L9,18" fill="none" stroke="gray"/></marker></defs><defs><marker orient="auto" markerHeight="18" markerWidth="30" refY="9" refX="0" id="ZERO_OR_ONE_START"><circle r="6" cy="9" cx="21" fill="white" stroke="gray"/><path d="M9,0 L9,18" fill="none" stroke="gray"/></marker></defs><defs><marker orient="auto" markerHeight="18" markerWidth="30" refY="9" refX="30" id="ZERO_OR_ONE_END"><circle r="6" cy="9" cx="9" fill="white" stroke="gray"/><path d="M21,0 L21,18" fill="none" stroke="gray"/></marker></defs><defs><marker orient="auto" markerHeight="36" markerWidth="45" refY="18" refX="18" id="ONE_OR_MORE_START"><path d="M0,18 Q 18,0 36,18 Q 18,36 0,18 M42,9 L42,27" fill="none" stroke="gray"/></marker></defs><defs><marker orient="auto" markerHeight="36" markerWidth="45" refY="18" refX="27" id="ONE_OR_MORE_END"><path d="M3,9 L3,27 M9,18 Q27,0 45,18 Q27,36 9,18" fill="none" stroke="gray"/></marker></defs><defs><marker orient="auto" markerHeight="36" markerWidth="57" refY="18" refX="18" id="ZERO_OR_MORE_START"><circle r="6" cy="18" cx="48" fill="white" stroke="gray"/><path d="M0,18 Q18,0 36,18 Q18,36 0,18" fill="none" stroke="gray"/></marker></defs><defs><marker orient="auto" markerHeight="36" markerWidth="57" refY="18" refX="39" id="ZERO_OR_MORE_END"><circle r="6" cy="18" cx="9" fill="white" stroke="gray"/><path d="M21,18 Q39,0 57,18 Q39,36 21,18" fill="none" stroke="gray"/></marker></defs><path style="stroke: gray; fill: none;" marker-start="url(#ONLY_ONE_START)" marker-end="url(#ZERO_OR_MORE_END)" d="M96.771,109.333L96.771,117.667C96.771,126,96.771,142.667,96.771,159.333C96.771,176,96.771,192.667,96.771,201L96.771,209.333" class="er relationshipLine"/><g transform="translate(21.418716430664062,20 )" id="entity-Regioes-d155fd71-28fb-5eb0-9943-e3ba19ce5941"><rect height="89.33333396911621" width="150.70480632781982" y="0" x="0" class="er entityBox"/><text style="dominant-baseline: middle; text-anchor: middle; font-size: 12px;" transform="translate(75.35240316390991,12)" y="0" x="0" id="text-entity-Regioes-d155fd71-28fb-5eb0-9943-e3ba19ce5941" class="er entityLabel">Regioes</text><rect height="21.33333396911621" width="63.09375" y="24" x="0" class="er attributeBoxOdd"/><text style="dominant-baseline: middle; font-size: 10.2px;" transform="translate(5,34.666666984558105)" y="0" x="0" id="text-entity-Regioes-d155fd71-28fb-5eb0-9943-e3ba19ce5941-attr-1-type" class="er entityLabel">int</text><rect height="21.33333396911621" width="65.92708587646484" y="24" x="63.09375" class="er attributeBoxOdd"/><text style="dominant-baseline: middle; font-size: 10.2px;" transform="translate(68.09375,34.666666984558105)" y="0" x="0" id="text-entity-Regioes-d155fd71-28fb-5eb0-9943-e3ba19ce5941-attr-1-name" class="er entityLabel">IdRegiao</text><rect height="21.33333396911621" width="21.68397045135498" y="24" x="129.02083587646484" class="er attributeBoxOdd"/><text style="dominant-baseline: middle; font-size: 10.2px;" transform="translate(134.02083587646484,34.666666984558105)" y="0" x="0" id="text-entity-Regioes-d155fd71-28fb-5eb0-9943-e3ba19ce5941-attr-1-key" class="er entityLabel">PK</text><rect height="22" width="63.09375" y="45.33333396911621" x="0" class="er attributeBoxEven"/><text style="dominant-baseline: middle; font-size: 10.2px;" transform="translate(5,56.33333396911621)" y="0" x="0" id="text-entity-Regioes-d155fd71-28fb-5eb0-9943-e3ba19ce5941-attr-2-type" class="er entityLabel">varchar(2)</text><rect height="22" width="65.92708587646484" y="45.33333396911621" x="63.09375" class="er attributeBoxEven"/><text style="dominant-baseline: middle; font-size: 10.2px;" transform="translate(68.09375,56.33333396911621)" y="0" x="0" id="text-entity-Regioes-d155fd71-28fb-5eb0-9943-e3ba19ce5941-attr-2-name" class="er entityLabel">CodRegiao</text><rect height="22" width="21.68397045135498" y="45.33333396911621" x="129.02083587646484" class="er attributeBoxEven"/><text style="dominant-baseline: middle; font-size: 10.2px;" transform="translate(134.02083587646484,56.33333396911621)" y="0" x="0" id="text-entity-Regioes-d155fd71-28fb-5eb0-9943-e3ba19ce5941-attr-2-key" class="er entityLabel"/><rect height="22" width="63.09375" y="67.33333396911621" x="0" class="er attributeBoxOdd"/><text style="dominant-baseline: middle; font-size: 10.2px;" transform="translate(5,78.33333396911621)" y="0" x="0" id="text-entity-Regioes-d155fd71-28fb-5eb0-9943-e3ba19ce5941-attr-3-type" class="er entityLabel">varchar(20)</text><rect height="22" width="65.92708587646484" y="67.33333396911621" x="63.09375" class="er attributeBoxOdd"/><text style="dominant-baseline: middle; font-size: 10.2px;" transform="translate(68.09375,78.33333396911621)" y="0" x="0" id="text-entity-Regioes-d155fd71-28fb-5eb0-9943-e3ba19ce5941-attr-3-name" class="er entityLabel">NomeRegiao</text><rect height="22" width="21.68397045135498" y="67.33333396911621" x="129.02083587646484" class="er attributeBoxOdd"/><text style="dominant-baseline: middle; font-size: 10.2px;" transform="translate(134.02083587646484,78.33333396911621)" y="0" x="0" id="text-entity-Regioes-d155fd71-28fb-5eb0-9943-e3ba19ce5941-attr-3-key" class="er entityLabel"/></g><g transform="translate(20,209.33333587646484 )" id="entity-Estados-2a6b3a17-e29a-5922-996d-a157610d5a14"><rect height="111.33333396911621" width="153.54223918914795" y="0" x="0" class="er entityBox"/><text style="dominant-baseline: middle; text-anchor: middle; font-size: 12px;" transform="translate(76.77111959457397,12)" y="0" x="0" id="text-entity-Estados-2a6b3a17-e29a-5922-996d-a157610d5a14" class="er entityLabel">Estados</text><rect height="22" width="63.09375" y="24" x="0" class="er attributeBoxOdd"/><text style="dominant-baseline: middle; font-size: 10.2px;" transform="translate(5,35)" y="0" x="0" id="text-entity-Estados-2a6b3a17-e29a-5922-996d-a157610d5a14-attr-1-type" class="er entityLabel">char(2)</text><rect height="22" width="68.76451873779297" y="24" x="63.09375" class="er attributeBoxOdd"/><text style="dominant-baseline: middle; font-size: 10.2px;" transform="translate(68.09375,35)" y="0" x="0" id="text-entity-Estados-2a6b3a17-e29a-5922-996d-a157610d5a14-attr-1-name" class="er entityLabel">SiglaEstado</text><rect height="22" width="21.68397045135498" y="24" x="131.85826873779297" class="er attributeBoxOdd"/><text style="dominant-baseline: middle; font-size: 10.2px;" transform="translate(136.85826873779297,35)" y="0" x="0" id="text-entity-Estados-2a6b3a17-e29a-5922-996d-a157610d5a14-attr-1-key" class="er entityLabel">PK</text><rect height="22" width="63.09375" y="46" x="0" class="er attributeBoxEven"/><text style="dominant-baseline: middle; font-size: 10.2px;" transform="translate(5,57)" y="0" x="0" id="text-entity-Estados-2a6b3a17-e29a-5922-996d-a157610d5a14-attr-2-type" class="er entityLabel">varchar(20)</text><rect height="22" width="68.76451873779297" y="46" x="63.09375" class="er attributeBoxEven"/><text style="dominant-baseline: middle; font-size: 10.2px;" transform="translate(68.09375,57)" y="0" x="0" id="text-entity-Estados-2a6b3a17-e29a-5922-996d-a157610d5a14-attr-2-name" class="er entityLabel">NomeEstado</text><rect height="22" width="21.68397045135498" y="46" x="131.85826873779297" class="er attributeBoxEven"/><text style="dominant-baseline: middle; font-size: 10.2px;" transform="translate(136.85826873779297,57)" y="0" x="0" id="text-entity-Estados-2a6b3a17-e29a-5922-996d-a157610d5a14-attr-2-key" class="er entityLabel"/><rect height="22" width="63.09375" y="68" x="0" class="er attributeBoxOdd"/><text style="dominant-baseline: middle; font-size: 10.2px;" transform="translate(5,79)" y="0" x="0" id="text-entity-Estados-2a6b3a17-e29a-5922-996d-a157610d5a14-attr-3-type" class="er entityLabel">varchar(20)</text><rect height="22" width="68.76451873779297" y="68" x="63.09375" class="er attributeBoxOdd"/><text style="dominant-baseline: middle; font-size: 10.2px;" transform="translate(68.09375,79)" y="0" x="0" id="text-entity-Estados-2a6b3a17-e29a-5922-996d-a157610d5a14-attr-3-name" class="er entityLabel">NomeCapital</text><rect height="22" width="21.68397045135498" y="68" x="131.85826873779297" class="er attributeBoxOdd"/><text style="dominant-baseline: middle; font-size: 10.2px;" transform="translate(136.85826873779297,79)" y="0" x="0" id="text-entity-Estados-2a6b3a17-e29a-5922-996d-a157610d5a14-attr-3-key" class="er entityLabel"/><rect height="21.33333396911621" width="63.09375" y="90" x="0" class="er attributeBoxEven"/><text style="dominant-baseline: middle; font-size: 10.2px;" transform="translate(5,100.6666669845581)" y="0" x="0" id="text-entity-Estados-2a6b3a17-e29a-5922-996d-a157610d5a14-attr-4-type" class="er entityLabel">int</text><rect height="21.33333396911621" width="68.76451873779297" y="90" x="63.09375" class="er attributeBoxEven"/><text style="dominant-baseline: middle; font-size: 10.2px;" transform="translate(68.09375,100.6666669845581)" y="0" x="0" id="text-entity-Estados-2a6b3a17-e29a-5922-996d-a157610d5a14-attr-4-name" class="er entityLabel">IdRegiao</text><rect height="21.33333396911621" width="21.68397045135498" y="90" x="131.85826873779297" class="er attributeBoxEven"/><text style="dominant-baseline: middle; font-size: 10.2px;" transform="translate(136.85826873779297,100.6666669845581)" y="0" x="0" id="text-entity-Estados-2a6b3a17-e29a-5922-996d-a157610d5a14-attr-4-key" class="er entityLabel">FK</text></g><rect height="14" width="44.84375" y="152.33299255371094" x="74.34912872314453" class="er relationshipLabelBox"/><text style="text-anchor: middle; dominant-baseline: middle; font-size: 12px;" y="159.33299255371094" x="96.77100372314453" id="rel1" class="er relationshipLabel">contains</text></svg>