<svg aria-roledescription="er" role="graphics-document document" viewBox="0 0 728.3273315429688 804.666748046875" style="max-width: 728.3273315429688px;" xmlns:xlink="http://www.w3.org/1999/xlink" xmlns="http://www.w3.org/2000/svg" width="100%" id="mermaid-1725326604219"><style>#mermaid-1725326604219{font-family:"trebuchet ms",verdana,arial,sans-serif;font-size:16px;fill:#333;}#mermaid-1725326604219 .error-icon{fill:#552222;}#mermaid-1725326604219 .error-text{fill:#552222;stroke:#552222;}#mermaid-1725326604219 .edge-thickness-normal{stroke-width:2px;}#mermaid-1725326604219 .edge-thickness-thick{stroke-width:3.5px;}#mermaid-1725326604219 .edge-pattern-solid{stroke-dasharray:0;}#mermaid-1725326604219 .edge-pattern-dashed{stroke-dasharray:3;}#mermaid-1725326604219 .edge-pattern-dotted{stroke-dasharray:2;}#mermaid-1725326604219 .marker{fill:#333333;stroke:#333333;}#mermaid-1725326604219 .marker.cross{stroke:#333333;}#mermaid-1725326604219 svg{font-family:"trebuchet ms",verdana,arial,sans-serif;font-size:16px;}#mermaid-1725326604219 .entityBox{fill:#ECECFF;stroke:#9370DB;}#mermaid-1725326604219 .attributeBoxOdd{fill:#ffffff;stroke:#9370DB;}#mermaid-1725326604219 .attributeBoxEven{fill:#f2f2f2;stroke:#9370DB;}#mermaid-1725326604219 .relationshipLabelBox{fill:hsl(80, 100%, 96.2745098039%);opacity:0.7;background-color:hsl(80, 100%, 96.2745098039%);}#mermaid-1725326604219 .relationshipLabelBox rect{opacity:0.5;}#mermaid-1725326604219 .relationshipLine{stroke:#333333;}#mermaid-1725326604219 .entityTitleText{text-anchor:middle;font-size:18px;fill:#333;}#mermaid-1725326604219 #MD_PARENT_START{fill:#f5f5f5!important;stroke:#333333!important;stroke-width:1;}#mermaid-1725326604219 #MD_PARENT_END{fill:#f5f5f5!important;stroke:#333333!important;stroke-width:1;}#mermaid-1725326604219 :root{--mermaid-font-family:"trebuchet ms",verdana,arial,sans-serif;}</style><g/><defs><marker orient="auto" markerHeight="240" markerWidth="190" refY="7" refX="0" id="MD_PARENT_START"><path d="M 18,7 L9,13 L1,7 L9,1 Z"/></marker></defs><defs><marker orient="auto" markerHeight="28" markerWidth="20" refY="7" refX="19" id="MD_PARENT_END"><path d="M 18,7 L9,13 L1,7 L9,1 Z"/></marker></defs><defs><marker orient="auto" markerHeight="18" markerWidth="18" refY="9" refX="0" id="ONLY_ONE_START"><path d="M9,0 L9,18 M15,0 L15,18" fill="none" stroke="gray"/></marker></defs><defs><marker orient="auto" markerHeight="18" markerWidth="18" refY="9" refX="18" id="ONLY_ONE_END"><path d="M3,0 L3,18 M9,0 L9,18" fill="none" stroke="gray"/></marker></defs><defs><marker orient="auto" markerHeight="18" markerWidth="30" refY="9" refX="0" id="ZERO_OR_ONE_START"><circle r="6" cy="9" cx="21" fill="white" stroke="gray"/><path d="M9,0 L9,18" fill="none" stroke="gray"/></marker></defs><defs><marker orient="auto" markerHeight="18" markerWidth="30" refY="9" refX="30" id="ZERO_OR_ONE_END"><circle r="6" cy="9" cx="9" fill="white" stroke="gray"/><path d="M21,0 L21,18" fill="none" stroke="gray"/></marker></defs><defs><marker orient="auto" markerHeight="36" markerWidth="45" refY="18" refX="18" id="ONE_OR_MORE_START"><path d="M0,18 Q 18,0 36,18 Q 18,36 0,18 M42,9 L42,27" fill="none" stroke="gray"/></marker></defs><defs><marker orient="auto" markerHeight="36" markerWidth="45" refY="18" refX="27" id="ONE_OR_MORE_END"><path d="M3,9 L3,27 M9,18 Q27,0 45,18 Q27,36 9,18" fill="none" stroke="gray"/></marker></defs><defs><marker orient="auto" markerHeight="36" markerWidth="57" refY="18" refX="18" id="ZERO_OR_MORE_START"><circle r="6" cy="18" cx="48" fill="white" stroke="gray"/><path d="M0,18 Q18,0 36,18 Q18,36 0,18" fill="none" stroke="gray"/></marker></defs><defs><marker orient="auto" markerHeight="36" markerWidth="57" refY="18" refX="39" id="ZERO_OR_MORE_END"><circle r="6" cy="18" cx="9" fill="white" stroke="gray"/><path d="M21,18 Q39,0 57,18 Q39,36 21,18" fill="none" stroke="gray"/></marker></defs><path style="stroke: gray; fill: none;" marker-start="url(#ONLY_ONE_START)" marker-end="url(#ZERO_OR_MORE_END)" d="M136.24,88L131.28,96.333C126.32,104.667,116.399,121.333,111.439,141.611C106.478,161.889,106.478,185.778,106.478,197.722L106.478,209.667" class="er relationshipLine"/><path style="stroke: gray; fill: none;" marker-start="url(#ONLY_ONE_START)" marker-end="url(#ZERO_OR_MORE_END)" d="M219.309,88L234.708,96.333C250.108,104.667,280.907,121.333,304.921,138C328.935,154.667,346.163,171.333,354.777,179.667L363.392,188" class="er relationshipLine"/><path style="stroke: gray; fill: none;" marker-start="url(#ONLY_ONE_START)" marker-end="url(#ZERO_OR_MORE_END)" d="M492.987,87.667L492.987,96.056C492.987,104.444,492.987,121.222,489.707,137.944C486.426,154.667,479.864,171.333,476.583,179.667L473.302,188" class="er relationshipLine"/><path style="stroke: gray; fill: none;" marker-start="url(#ONLY_ONE_START)" marker-end="url(#ZERO_OR_MORE_END)" d="M106.478,320.333L106.478,332.278C106.478,344.222,106.478,368.111,124.524,390.574C142.569,413.037,178.66,434.074,196.705,444.592L214.751,455.111" class="er relationshipLine"/><path style="stroke: gray; fill: none;" marker-start="url(#ONLY_ONE_START)" marker-end="url(#ZERO_OR_MORE_END)" d="M442.987,342L442.987,350.333C442.987,358.667,442.987,375.333,429.284,392.995C415.581,410.656,388.175,429.312,374.472,438.64L360.768,447.968" class="er relationshipLine"/><path style="stroke: gray; fill: none;" marker-start="url(#ONLY_ONE_START)" marker-end="url(#ZERO_OR_MORE_END)" d="M287.76,552.333L287.76,560.833C287.76,569.333,287.76,586.333,298.451,603.167C309.142,620,330.524,636.667,341.216,645L351.907,653.333" class="er relationshipLine"/><path style="stroke: gray; fill: none;" marker-start="url(#ONLY_ONE_START)" marker-end="url(#ZERO_OR_MORE_END)" d="M584.548,553.333L584.548,561.667C584.548,570,584.548,586.667,573.857,603.333C563.165,620,541.783,636.667,531.092,645L520.401,653.333" class="er relationshipLine"/><g transform="translate(65.56193542480469,20 )" id="entity-EstadoCivil-a5dbb66d-b55d-5652-bd2f-d780e952845d"><rect height="68" width="181.8326826095581" y="0" x="0" class="er entityBox"/><text style="dominant-baseline: middle; text-anchor: middle; font-size: 12px;" transform="translate(90.91634130477905,12)" y="0" x="0" id="text-entity-EstadoCivil-a5dbb66d-b55d-5652-bd2f-d780e952845d" class="er entityLabel">Estado_Civil</text><rect height="22" width="63.09375" y="24" x="0" class="er attributeBoxOdd"/><text style="dominant-baseline: middle; font-size: 10.2px;" transform="translate(5,35)" y="0" x="0" id="text-entity-EstadoCivil-a5dbb66d-b55d-5652-bd2f-d780e952845d-attr-1-type" class="er entityLabel">char(1)</text><rect height="22" width="97.05496215820312" y="24" x="63.09375" class="er attributeBoxOdd"/><text style="dominant-baseline: middle; font-size: 10.2px;" transform="translate(68.09375,35)" y="0" x="0" id="text-entity-EstadoCivil-a5dbb66d-b55d-5652-bd2f-d780e952845d-attr-1-name" class="er entityLabel">Cd_Estado_Civil</text><rect height="22" width="21.68397045135498" y="24" x="160.14871215820312" class="er attributeBoxOdd"/><text style="dominant-baseline: middle; font-size: 10.2px;" transform="translate(165.14871215820312,35)" y="0" x="0" id="text-entity-EstadoCivil-a5dbb66d-b55d-5652-bd2f-d780e952845d-attr-1-key" class="er entityLabel">PK</text><rect height="22" width="63.09375" y="46" x="0" class="er attributeBoxEven"/><text style="dominant-baseline: middle; font-size: 10.2px;" transform="translate(5,57)" y="0" x="0" id="text-entity-EstadoCivil-a5dbb66d-b55d-5652-bd2f-d780e952845d-attr-2-type" class="er entityLabel">varchar(50)</text><rect height="22" width="97.05496215820312" y="46" x="63.09375" class="er attributeBoxEven"/><text style="dominant-baseline: middle; font-size: 10.2px;" transform="translate(68.09375,57)" y="0" x="0" id="text-entity-EstadoCivil-a5dbb66d-b55d-5652-bd2f-d780e952845d-attr-2-name" class="er entityLabel">Nome_Estado_Civil</text><rect height="22" width="21.68397045135498" y="46" x="160.14871215820312" class="er attributeBoxEven"/><text style="dominant-baseline: middle; font-size: 10.2px;" transform="translate(165.14871215820312,57)" y="0" x="0" id="text-entity-EstadoCivil-a5dbb66d-b55d-5652-bd2f-d780e952845d-attr-2-key" class="er entityLabel"/></g><g transform="translate(20,209.66666793823242 )" id="entity-Clientes-c3b7b470-d6c9-5283-8266-3c9bc1119cee"><rect height="110.66666793823242" width="172.95655345916748" y="0" x="0" class="er entityBox"/><text style="dominant-baseline: middle; text-anchor: middle; font-size: 12px;" transform="translate(86.47827672958374,12)" y="0" x="0" id="text-entity-Clientes-c3b7b470-d6c9-5283-8266-3c9bc1119cee" class="er entityLabel">Clientes</text><rect height="21.33333396911621" width="68.4375" y="24" x="0" class="er attributeBoxOdd"/><text style="dominant-baseline: middle; font-size: 10.2px;" transform="translate(5,34.666666984558105)" y="0" x="0" id="text-entity-Clientes-c3b7b470-d6c9-5283-8266-3c9bc1119cee-attr-1-type" class="er entityLabel">int</text><rect height="21.33333396911621" width="82.8350830078125" y="24" x="68.4375" class="er attributeBoxOdd"/><text style="dominant-baseline: middle; font-size: 10.2px;" transform="translate(73.4375,34.666666984558105)" y="0" x="0" id="text-entity-Clientes-c3b7b470-d6c9-5283-8266-3c9bc1119cee-attr-1-name" class="er entityLabel">Id_Cliente</text><rect height="21.33333396911621" width="21.68397045135498" y="24" x="151.2725830078125" class="er attributeBoxOdd"/><text style="dominant-baseline: middle; font-size: 10.2px;" transform="translate(156.2725830078125,34.666666984558105)" y="0" x="0" id="text-entity-Clientes-c3b7b470-d6c9-5283-8266-3c9bc1119cee-attr-1-key" class="er entityLabel">PK</text><rect height="22" width="68.4375" y="45.33333396911621" x="0" class="er attributeBoxEven"/><text style="dominant-baseline: middle; font-size: 10.2px;" transform="translate(5,56.33333396911621)" y="0" x="0" id="text-entity-Clientes-c3b7b470-d6c9-5283-8266-3c9bc1119cee-attr-2-type" class="er entityLabel">varchar(100)</text><rect height="22" width="82.8350830078125" y="45.33333396911621" x="68.4375" class="er attributeBoxEven"/><text style="dominant-baseline: middle; font-size: 10.2px;" transform="translate(73.4375,56.33333396911621)" y="0" x="0" id="text-entity-Clientes-c3b7b470-d6c9-5283-8266-3c9bc1119cee-attr-2-name" class="er entityLabel">Nome_Cliente</text><rect height="22" width="21.68397045135498" y="45.33333396911621" x="151.2725830078125" class="er attributeBoxEven"/><text style="dominant-baseline: middle; font-size: 10.2px;" transform="translate(156.2725830078125,56.33333396911621)" y="0" x="0" id="text-entity-Clientes-c3b7b470-d6c9-5283-8266-3c9bc1119cee-attr-2-key" class="er entityLabel"/><rect height="21.33333396911621" width="68.4375" y="67.33333396911621" x="0" class="er attributeBoxOdd"/><text style="dominant-baseline: middle; font-size: 10.2px;" transform="translate(5,78.00000095367432)" y="0" x="0" id="text-entity-Clientes-c3b7b470-d6c9-5283-8266-3c9bc1119cee-attr-3-type" class="er entityLabel">date</text><rect height="21.33333396911621" width="82.8350830078125" y="67.33333396911621" x="68.4375" class="er attributeBoxOdd"/><text style="dominant-baseline: middle; font-size: 10.2px;" transform="translate(73.4375,78.00000095367432)" y="0" x="0" id="text-entity-Clientes-c3b7b470-d6c9-5283-8266-3c9bc1119cee-attr-3-name" class="er entityLabel">Dt_Nascimento</text><rect height="21.33333396911621" width="21.68397045135498" y="67.33333396911621" x="151.2725830078125" class="er attributeBoxOdd"/><text style="dominant-baseline: middle; font-size: 10.2px;" transform="translate(156.2725830078125,78.00000095367432)" y="0" x="0" id="text-entity-Clientes-c3b7b470-d6c9-5283-8266-3c9bc1119cee-attr-3-key" class="er entityLabel"/><rect height="22" width="68.4375" y="88.66666793823242" x="0" class="er attributeBoxEven"/><text style="dominant-baseline: middle; font-size: 10.2px;" transform="translate(5,99.66666793823242)" y="0" x="0" id="text-entity-Clientes-c3b7b470-d6c9-5283-8266-3c9bc1119cee-attr-4-type" class="er entityLabel">char(1)</text><rect height="22" width="82.8350830078125" y="88.66666793823242" x="68.4375" class="er attributeBoxEven"/><text style="dominant-baseline: middle; font-size: 10.2px;" transform="translate(73.4375,99.66666793823242)" y="0" x="0" id="text-entity-Clientes-c3b7b470-d6c9-5283-8266-3c9bc1119cee-attr-4-name" class="er entityLabel">Cd_Estado_Civil</text><rect height="22" width="21.68397045135498" y="88.66666793823242" x="151.2725830078125" class="er attributeBoxEven"/><text style="dominant-baseline: middle; font-size: 10.2px;" transform="translate(156.2725830078125,99.66666793823242)" y="0" x="0" id="text-entity-Clientes-c3b7b470-d6c9-5283-8266-3c9bc1119cee-attr-4-key" class="er entityLabel">FK</text></g><g transform="translate(421.3411979675293,20.333332061767578 )" id="entity-Filiais-96ffb12b-5eff-5506-8b61-1237e04a8e4f"><rect height="67.33333396911621" width="143.29239177703857" y="0" x="0" class="er entityBox"/><text style="dominant-baseline: middle; text-anchor: middle; font-size: 12px;" transform="translate(71.64619588851929,12)" y="0" x="0" id="text-entity-Filiais-96ffb12b-5eff-5506-8b61-1237e04a8e4f" class="er entityLabel">Filiais</text><rect height="21.33333396911621" width="68.4375" y="24" x="0" class="er attributeBoxOdd"/><text style="dominant-baseline: middle; font-size: 10.2px;" transform="translate(5,34.666666984558105)" y="0" x="0" id="text-entity-Filiais-96ffb12b-5eff-5506-8b61-1237e04a8e4f-attr-1-type" class="er entityLabel">int</text><rect height="21.33333396911621" width="53.170921325683594" y="24" x="68.4375" class="er attributeBoxOdd"/><text style="dominant-baseline: middle; font-size: 10.2px;" transform="translate(73.4375,34.666666984558105)" y="0" x="0" id="text-entity-Filiais-96ffb12b-5eff-5506-8b61-1237e04a8e4f-attr-1-name" class="er entityLabel">Id_Filial</text><rect height="21.33333396911621" width="21.68397045135498" y="24" x="121.6084213256836" class="er attributeBoxOdd"/><text style="dominant-baseline: middle; font-size: 10.2px;" transform="translate(126.6084213256836,34.666666984558105)" y="0" x="0" id="text-entity-Filiais-96ffb12b-5eff-5506-8b61-1237e04a8e4f-attr-1-key" class="er entityLabel">PK</text><rect height="22" width="68.4375" y="45.33333396911621" x="0" class="er attributeBoxEven"/><text style="dominant-baseline: middle; font-size: 10.2px;" transform="translate(5,56.33333396911621)" y="0" x="0" id="text-entity-Filiais-96ffb12b-5eff-5506-8b61-1237e04a8e4f-attr-2-type" class="er entityLabel">varchar(100)</text><rect height="22" width="53.170921325683594" y="45.33333396911621" x="68.4375" class="er attributeBoxEven"/><text style="dominant-baseline: middle; font-size: 10.2px;" transform="translate(73.4375,56.33333396911621)" y="0" x="0" id="text-entity-Filiais-96ffb12b-5eff-5506-8b61-1237e04a8e4f-attr-2-name" class="er entityLabel">Nm_Filial</text><rect height="22" width="21.68397045135498" y="45.33333396911621" x="121.6084213256836" class="er attributeBoxEven"/><text style="dominant-baseline: middle; font-size: 10.2px;" transform="translate(126.6084213256836,56.33333396911621)" y="0" x="0" id="text-entity-Filiais-96ffb12b-5eff-5506-8b61-1237e04a8e4f-attr-2-key" class="er entityLabel"/></g><g transform="translate(319.00998306274414,188 )" id="entity-Funcionarios-b9816270-c59b-57ef-b016-4464a15bbafe"><rect height="154.00000190734863" width="247.95480632781982" y="0" x="0" class="er entityBox"/><text style="dominant-baseline: middle; text-anchor: middle; font-size: 12px;" transform="translate(123.97740316390991,12)" y="0" x="0" id="text-entity-Funcionarios-b9816270-c59b-57ef-b016-4464a15bbafe" class="er entityLabel">Funcionarios</text><rect height="21.33333396911621" width="68.4375" y="24" x="0" class="er attributeBoxOdd"/><text style="dominant-baseline: middle; font-size: 10.2px;" transform="translate(5,34.666666984558105)" y="0" x="0" id="text-entity-Funcionarios-b9816270-c59b-57ef-b016-4464a15bbafe-attr-1-type" class="er entityLabel">int</text><rect height="21.33333396911621" width="83.48958587646484" y="24" x="68.4375" class="er attributeBoxOdd"/><text style="dominant-baseline: middle; font-size: 10.2px;" transform="translate(73.4375,34.666666984558105)" y="0" x="0" id="text-entity-Funcionarios-b9816270-c59b-57ef-b016-4464a15bbafe-attr-1-name" class="er entityLabel">Id_Funcionario</text><rect height="21.33333396911621" width="21.68397045135498" y="24" x="151.92708587646484" class="er attributeBoxOdd"/><text style="dominant-baseline: middle; font-size: 10.2px;" transform="translate(156.92708587646484,34.666666984558105)" y="0" x="0" id="text-entity-Funcionarios-b9816270-c59b-57ef-b016-4464a15bbafe-attr-1-key" class="er entityLabel">PK</text><rect height="21.33333396911621" width="74.34375" y="24" x="173.61105632781982" class="er attributeBoxOdd"/><text style="dominant-baseline: middle; font-size: 10.2px;" transform="translate(178.61105632781982,34.666666984558105)" y="0" x="0" id="text-entity-Funcionarios-b9816270-c59b-57ef-b016-4464a15bbafe-attr-1-comment" class="er entityLabel"/><rect height="22" width="68.4375" y="45.33333396911621" x="0" class="er attributeBoxEven"/><text style="dominant-baseline: middle; font-size: 10.2px;" transform="translate(5,56.33333396911621)" y="0" x="0" id="text-entity-Funcionarios-b9816270-c59b-57ef-b016-4464a15bbafe-attr-2-type" class="er entityLabel">varchar(100)</text><rect height="22" width="83.48958587646484" y="45.33333396911621" x="68.4375" class="er attributeBoxEven"/><text style="dominant-baseline: middle; font-size: 10.2px;" transform="translate(73.4375,56.33333396911621)" y="0" x="0" id="text-entity-Funcionarios-b9816270-c59b-57ef-b016-4464a15bbafe-attr-2-name" class="er entityLabel">Nm_Funcionario</text><rect height="22" width="21.68397045135498" y="45.33333396911621" x="151.92708587646484" class="er attributeBoxEven"/><text style="dominant-baseline: middle; font-size: 10.2px;" transform="translate(156.92708587646484,56.33333396911621)" y="0" x="0" id="text-entity-Funcionarios-b9816270-c59b-57ef-b016-4464a15bbafe-attr-2-key" class="er entityLabel"/><rect height="22" width="74.34375" y="45.33333396911621" x="173.61105632781982" class="er attributeBoxEven"/><text style="dominant-baseline: middle; font-size: 10.2px;" transform="translate(178.61105632781982,56.33333396911621)" y="0" x="0" id="text-entity-Funcionarios-b9816270-c59b-57ef-b016-4464a15bbafe-attr-2-comment" class="er entityLabel"/><rect height="21.33333396911621" width="68.4375" y="67.33333396911621" x="0" class="er attributeBoxOdd"/><text style="dominant-baseline: middle; font-size: 10.2px;" transform="translate(5,78.00000095367432)" y="0" x="0" id="text-entity-Funcionarios-b9816270-c59b-57ef-b016-4464a15bbafe-attr-3-type" class="er entityLabel">date</text><rect height="21.33333396911621" width="83.48958587646484" y="67.33333396911621" x="68.4375" class="er attributeBoxOdd"/><text style="dominant-baseline: middle; font-size: 10.2px;" transform="translate(73.4375,78.00000095367432)" y="0" x="0" id="text-entity-Funcionarios-b9816270-c59b-57ef-b016-4464a15bbafe-attr-3-name" class="er entityLabel">Dt_Nascimento</text><rect height="21.33333396911621" width="21.68397045135498" y="67.33333396911621" x="151.92708587646484" class="er attributeBoxOdd"/><text style="dominant-baseline: middle; font-size: 10.2px;" transform="translate(156.92708587646484,78.00000095367432)" y="0" x="0" id="text-entity-Funcionarios-b9816270-c59b-57ef-b016-4464a15bbafe-attr-3-key" class="er entityLabel"/><rect height="21.33333396911621" width="74.34375" y="67.33333396911621" x="173.61105632781982" class="er attributeBoxOdd"/><text style="dominant-baseline: middle; font-size: 10.2px;" transform="translate(178.61105632781982,78.00000095367432)" y="0" x="0" id="text-entity-Funcionarios-b9816270-c59b-57ef-b016-4464a15bbafe-attr-3-comment" class="er entityLabel"/><rect height="22" width="68.4375" y="88.66666793823242" x="0" class="er attributeBoxEven"/><text style="dominant-baseline: middle; font-size: 10.2px;" transform="translate(5,99.66666793823242)" y="0" x="0" id="text-entity-Funcionarios-b9816270-c59b-57ef-b016-4464a15bbafe-attr-4-type" class="er entityLabel">char(1)</text><rect height="22" width="83.48958587646484" y="88.66666793823242" x="68.4375" class="er attributeBoxEven"/><text style="dominant-baseline: middle; font-size: 10.2px;" transform="translate(73.4375,99.66666793823242)" y="0" x="0" id="text-entity-Funcionarios-b9816270-c59b-57ef-b016-4464a15bbafe-attr-4-name" class="er entityLabel">Cd_Estado_Civil</text><rect height="22" width="21.68397045135498" y="88.66666793823242" x="151.92708587646484" class="er attributeBoxEven"/><text style="dominant-baseline: middle; font-size: 10.2px;" transform="translate(156.92708587646484,99.66666793823242)" y="0" x="0" id="text-entity-Funcionarios-b9816270-c59b-57ef-b016-4464a15bbafe-attr-4-key" class="er entityLabel">FK</text><rect height="22" width="74.34375" y="88.66666793823242" x="173.61105632781982" class="er attributeBoxEven"/><text style="dominant-baseline: middle; font-size: 10.2px;" transform="translate(178.61105632781982,99.66666793823242)" y="0" x="0" id="text-entity-Funcionarios-b9816270-c59b-57ef-b016-4464a15bbafe-attr-4-comment" class="er entityLabel"/><rect height="22" width="68.4375" y="110.66666793823242" x="0" class="er attributeBoxOdd"/><text style="dominant-baseline: middle; font-size: 10.2px;" transform="translate(5,121.66666793823242)" y="0" x="0" id="text-entity-Funcionarios-b9816270-c59b-57ef-b016-4464a15bbafe-attr-5-type" class="er entityLabel">numeric</text><rect height="22" width="83.48958587646484" y="110.66666793823242" x="68.4375" class="er attributeBoxOdd"/><text style="dominant-baseline: middle; font-size: 10.2px;" transform="translate(73.4375,121.66666793823242)" y="0" x="0" id="text-entity-Funcionarios-b9816270-c59b-57ef-b016-4464a15bbafe-attr-5-name" class="er entityLabel">Vl_Salario</text><rect height="22" width="21.68397045135498" y="110.66666793823242" x="151.92708587646484" class="er attributeBoxOdd"/><text style="dominant-baseline: middle; font-size: 10.2px;" transform="translate(156.92708587646484,121.66666793823242)" y="0" x="0" id="text-entity-Funcionarios-b9816270-c59b-57ef-b016-4464a15bbafe-attr-5-key" class="er entityLabel"/><rect height="22" width="74.34375" y="110.66666793823242" x="173.61105632781982" class="er attributeBoxOdd"/><text style="dominant-baseline: middle; font-size: 10.2px;" transform="translate(178.61105632781982,121.66666793823242)" y="0" x="0" id="text-entity-Funcionarios-b9816270-c59b-57ef-b016-4464a15bbafe-attr-5-comment" class="er entityLabel">numeric(18,2)</text><rect height="21.33333396911621" width="68.4375" y="132.66666793823242" x="0" class="er attributeBoxEven"/><text style="dominant-baseline: middle; font-size: 10.2px;" transform="translate(5,143.33333492279053)" y="0" x="0" id="text-entity-Funcionarios-b9816270-c59b-57ef-b016-4464a15bbafe-attr-6-type" class="er entityLabel">int</text><rect height="21.33333396911621" width="83.48958587646484" y="132.66666793823242" x="68.4375" class="er attributeBoxEven"/><text style="dominant-baseline: middle; font-size: 10.2px;" transform="translate(73.4375,143.33333492279053)" y="0" x="0" id="text-entity-Funcionarios-b9816270-c59b-57ef-b016-4464a15bbafe-attr-6-name" class="er entityLabel">Id_Filial</text><rect height="21.33333396911621" width="21.68397045135498" y="132.66666793823242" x="151.92708587646484" class="er attributeBoxEven"/><text style="dominant-baseline: middle; font-size: 10.2px;" transform="translate(156.92708587646484,143.33333492279053)" y="0" x="0" id="text-entity-Funcionarios-b9816270-c59b-57ef-b016-4464a15bbafe-attr-6-key" class="er entityLabel">FK</text><rect height="21.33333396911621" width="74.34375" y="132.66666793823242" x="173.61105632781982" class="er attributeBoxEven"/><text style="dominant-baseline: middle; font-size: 10.2px;" transform="translate(178.61105632781982,143.33333492279053)" y="0" x="0" id="text-entity-Funcionarios-b9816270-c59b-57ef-b016-4464a15bbafe-attr-6-comment" class="er entityLabel"/></g><g transform="translate(460.7683525085449,442 )" id="entity-Produtos-42fcffcd-ec46-5843-a11f-a6b711591c51"><rect height="111.33333396911621" width="247.55897045135498" y="0" x="0" class="er entityBox"/><text style="dominant-baseline: middle; text-anchor: middle; font-size: 12px;" transform="translate(123.77948522567749,12)" y="0" x="0" id="text-entity-Produtos-42fcffcd-ec46-5843-a11f-a6b711591c51" class="er entityLabel">Produtos</text><rect height="21.33333396911621" width="68.4375" y="24" x="0" class="er attributeBoxOdd"/><text style="dominant-baseline: middle; font-size: 10.2px;" transform="translate(5,34.666666984558105)" y="0" x="0" id="text-entity-Produtos-42fcffcd-ec46-5843-a11f-a6b711591c51-attr-1-type" class="er entityLabel">int</text><rect height="21.33333396911621" width="83.09375" y="24" x="68.4375" class="er attributeBoxOdd"/><text style="dominant-baseline: middle; font-size: 10.2px;" transform="translate(73.4375,34.666666984558105)" y="0" x="0" id="text-entity-Produtos-42fcffcd-ec46-5843-a11f-a6b711591c51-attr-1-name" class="er entityLabel">Id_Produto</text><rect height="21.33333396911621" width="21.68397045135498" y="24" x="151.53125" class="er attributeBoxOdd"/><text style="dominant-baseline: middle; font-size: 10.2px;" transform="translate(156.53125,34.666666984558105)" y="0" x="0" id="text-entity-Produtos-42fcffcd-ec46-5843-a11f-a6b711591c51-attr-1-key" class="er entityLabel">PK</text><rect height="21.33333396911621" width="74.34375" y="24" x="173.21522045135498" class="er attributeBoxOdd"/><text style="dominant-baseline: middle; font-size: 10.2px;" transform="translate(178.21522045135498,34.666666984558105)" y="0" x="0" id="text-entity-Produtos-42fcffcd-ec46-5843-a11f-a6b711591c51-attr-1-comment" class="er entityLabel"/><rect height="22" width="68.4375" y="45.33333396911621" x="0" class="er attributeBoxEven"/><text style="dominant-baseline: middle; font-size: 10.2px;" transform="translate(5,56.33333396911621)" y="0" x="0" id="text-entity-Produtos-42fcffcd-ec46-5843-a11f-a6b711591c51-attr-2-type" class="er entityLabel">varchar(100)</text><rect height="22" width="83.09375" y="45.33333396911621" x="68.4375" class="er attributeBoxEven"/><text style="dominant-baseline: middle; font-size: 10.2px;" transform="translate(73.4375,56.33333396911621)" y="0" x="0" id="text-entity-Produtos-42fcffcd-ec46-5843-a11f-a6b711591c51-attr-2-name" class="er entityLabel">Nm_Produto</text><rect height="22" width="21.68397045135498" y="45.33333396911621" x="151.53125" class="er attributeBoxEven"/><text style="dominant-baseline: middle; font-size: 10.2px;" transform="translate(156.53125,56.33333396911621)" y="0" x="0" id="text-entity-Produtos-42fcffcd-ec46-5843-a11f-a6b711591c51-attr-2-key" class="er entityLabel"/><rect height="22" width="74.34375" y="45.33333396911621" x="173.21522045135498" class="er attributeBoxEven"/><text style="dominant-baseline: middle; font-size: 10.2px;" transform="translate(178.21522045135498,56.33333396911621)" y="0" x="0" id="text-entity-Produtos-42fcffcd-ec46-5843-a11f-a6b711591c51-attr-2-comment" class="er entityLabel"/><rect height="22" width="68.4375" y="67.33333396911621" x="0" class="er attributeBoxOdd"/><text style="dominant-baseline: middle; font-size: 10.2px;" transform="translate(5,78.33333396911621)" y="0" x="0" id="text-entity-Produtos-42fcffcd-ec46-5843-a11f-a6b711591c51-attr-3-type" class="er entityLabel">numeric</text><rect height="22" width="83.09375" y="67.33333396911621" x="68.4375" class="er attributeBoxOdd"/><text style="dominant-baseline: middle; font-size: 10.2px;" transform="translate(73.4375,78.33333396911621)" y="0" x="0" id="text-entity-Produtos-42fcffcd-ec46-5843-a11f-a6b711591c51-attr-3-name" class="er entityLabel">Vl_Custo</text><rect height="22" width="21.68397045135498" y="67.33333396911621" x="151.53125" class="er attributeBoxOdd"/><text style="dominant-baseline: middle; font-size: 10.2px;" transform="translate(156.53125,78.33333396911621)" y="0" x="0" id="text-entity-Produtos-42fcffcd-ec46-5843-a11f-a6b711591c51-attr-3-key" class="er entityLabel"/><rect height="22" width="74.34375" y="67.33333396911621" x="173.21522045135498" class="er attributeBoxOdd"/><text style="dominant-baseline: middle; font-size: 10.2px;" transform="translate(178.21522045135498,78.33333396911621)" y="0" x="0" id="text-entity-Produtos-42fcffcd-ec46-5843-a11f-a6b711591c51-attr-3-comment" class="er entityLabel">numeric(18,2)</text><rect height="22" width="68.4375" y="89.33333396911621" x="0" class="er attributeBoxEven"/><text style="dominant-baseline: middle; font-size: 10.2px;" transform="translate(5,100.33333396911621)" y="0" x="0" id="text-entity-Produtos-42fcffcd-ec46-5843-a11f-a6b711591c51-attr-4-type" class="er entityLabel">numeric</text><rect height="22" width="83.09375" y="89.33333396911621" x="68.4375" class="er attributeBoxEven"/><text style="dominant-baseline: middle; font-size: 10.2px;" transform="translate(73.4375,100.33333396911621)" y="0" x="0" id="text-entity-Produtos-42fcffcd-ec46-5843-a11f-a6b711591c51-attr-4-name" class="er entityLabel">Vl_Preco_Venda</text><rect height="22" width="21.68397045135498" y="89.33333396911621" x="151.53125" class="er attributeBoxEven"/><text style="dominant-baseline: middle; font-size: 10.2px;" transform="translate(156.53125,100.33333396911621)" y="0" x="0" id="text-entity-Produtos-42fcffcd-ec46-5843-a11f-a6b711591c51-attr-4-key" class="er entityLabel"/><rect height="22" width="74.34375" y="89.33333396911621" x="173.21522045135498" class="er attributeBoxEven"/><text style="dominant-baseline: middle; font-size: 10.2px;" transform="translate(178.21522045135498,100.33333396911621)" y="0" x="0" id="text-entity-Produtos-42fcffcd-ec46-5843-a11f-a6b711591c51-attr-4-comment" class="er entityLabel">numeric(18,2)</text></g><g transform="translate(214.7507438659668,443 )" id="entity-Pedidos-7e29ea32-13bc-5dc1-adcf-5517ce1dee84"><rect height="109.33333587646484" width="146.01760387420654" y="0" x="0" class="er entityBox"/><text style="dominant-baseline: middle; text-anchor: middle; font-size: 12px;" transform="translate(73.00880193710327,12)" y="0" x="0" id="text-entity-Pedidos-7e29ea32-13bc-5dc1-adcf-5517ce1dee84" class="er entityLabel">Pedidos</text><rect height="21.33333396911621" width="56.958335876464844" y="24" x="0" class="er attributeBoxOdd"/><text style="dominant-baseline: middle; font-size: 10.2px;" transform="translate(5,34.666666984558105)" y="0" x="0" id="text-entity-Pedidos-7e29ea32-13bc-5dc1-adcf-5517ce1dee84-attr-1-type" class="er entityLabel">int</text><rect height="21.33333396911621" width="67.37529754638672" y="24" x="56.958335876464844" class="er attributeBoxOdd"/><text style="dominant-baseline: middle; font-size: 10.2px;" transform="translate(61.958335876464844,34.666666984558105)" y="0" x="0" id="text-entity-Pedidos-7e29ea32-13bc-5dc1-adcf-5517ce1dee84-attr-1-name" class="er entityLabel">Id_Pedido</text><rect height="21.33333396911621" width="21.68397045135498" y="24" x="124.33363342285156" class="er attributeBoxOdd"/><text style="dominant-baseline: middle; font-size: 10.2px;" transform="translate(129.33363342285156,34.666666984558105)" y="0" x="0" id="text-entity-Pedidos-7e29ea32-13bc-5dc1-adcf-5517ce1dee84-attr-1-key" class="er entityLabel">PK</text><rect height="21.33333396911621" width="56.958335876464844" y="45.33333396911621" x="0" class="er attributeBoxEven"/><text style="dominant-baseline: middle; font-size: 10.2px;" transform="translate(5,56.000000953674316)" y="0" x="0" id="text-entity-Pedidos-7e29ea32-13bc-5dc1-adcf-5517ce1dee84-attr-2-type" class="er entityLabel">datetime2</text><rect height="21.33333396911621" width="67.37529754638672" y="45.33333396911621" x="56.958335876464844" class="er attributeBoxEven"/><text style="dominant-baseline: middle; font-size: 10.2px;" transform="translate(61.958335876464844,56.000000953674316)" y="0" x="0" id="text-entity-Pedidos-7e29ea32-13bc-5dc1-adcf-5517ce1dee84-attr-2-name" class="er entityLabel">Dt_Pedido</text><rect height="21.33333396911621" width="21.68397045135498" y="45.33333396911621" x="124.33363342285156" class="er attributeBoxEven"/><text style="dominant-baseline: middle; font-size: 10.2px;" transform="translate(129.33363342285156,56.000000953674316)" y="0" x="0" id="text-entity-Pedidos-7e29ea32-13bc-5dc1-adcf-5517ce1dee84-attr-2-key" class="er entityLabel"/><rect height="21.33333396911621" width="56.958335876464844" y="66.66666793823242" x="0" class="er attributeBoxOdd"/><text style="dominant-baseline: middle; font-size: 10.2px;" transform="translate(5,77.33333492279053)" y="0" x="0" id="text-entity-Pedidos-7e29ea32-13bc-5dc1-adcf-5517ce1dee84-attr-3-type" class="er entityLabel">int</text><rect height="21.33333396911621" width="67.37529754638672" y="66.66666793823242" x="56.958335876464844" class="er attributeBoxOdd"/><text style="dominant-baseline: middle; font-size: 10.2px;" transform="translate(61.958335876464844,77.33333492279053)" y="0" x="0" id="text-entity-Pedidos-7e29ea32-13bc-5dc1-adcf-5517ce1dee84-attr-3-name" class="er entityLabel">Id_Cliente</text><rect height="21.33333396911621" width="21.68397045135498" y="66.66666793823242" x="124.33363342285156" class="er attributeBoxOdd"/><text style="dominant-baseline: middle; font-size: 10.2px;" transform="translate(129.33363342285156,77.33333492279053)" y="0" x="0" id="text-entity-Pedidos-7e29ea32-13bc-5dc1-adcf-5517ce1dee84-attr-3-key" class="er entityLabel">FK</text><rect height="21.33333396911621" width="56.958335876464844" y="88.00000190734863" x="0" class="er attributeBoxEven"/><text style="dominant-baseline: middle; font-size: 10.2px;" transform="translate(5,98.66666889190674)" y="0" x="0" id="text-entity-Pedidos-7e29ea32-13bc-5dc1-adcf-5517ce1dee84-attr-4-type" class="er entityLabel">int</text><rect height="21.33333396911621" width="67.37529754638672" y="88.00000190734863" x="56.958335876464844" class="er attributeBoxEven"/><text style="dominant-baseline: middle; font-size: 10.2px;" transform="translate(61.958335876464844,98.66666889190674)" y="0" x="0" id="text-entity-Pedidos-7e29ea32-13bc-5dc1-adcf-5517ce1dee84-attr-4-name" class="er entityLabel">Id_Vendedor</text><rect height="21.33333396911621" width="21.68397045135498" y="88.00000190734863" x="124.33363342285156" class="er attributeBoxEven"/><text style="dominant-baseline: middle; font-size: 10.2px;" transform="translate(129.33363342285156,98.66666889190674)" y="0" x="0" id="text-entity-Pedidos-7e29ea32-13bc-5dc1-adcf-5517ce1dee84-attr-4-key" class="er entityLabel">FK</text></g><g transform="translate(324.1517028808594,653.3333358764648 )" id="entity-PedidosItens-5e65edc4-5181-59b5-8dcd-a43f40bb8dd0"><rect height="131.33333587646484" width="224.003981590271" y="0" x="0" class="er entityBox"/><text style="dominant-baseline: middle; text-anchor: middle; font-size: 12px;" transform="translate(112.0019907951355,12)" y="0" x="0" id="text-entity-PedidosItens-5e65edc4-5181-59b5-8dcd-a43f40bb8dd0" class="er entityLabel">Pedidos_Itens</text><rect height="21.33333396911621" width="47.36167526245117" y="24" x="0" class="er attributeBoxOdd"/><text style="dominant-baseline: middle; font-size: 10.2px;" transform="translate(5,34.666666984558105)" y="0" x="0" id="text-entity-PedidosItens-5e65edc4-5181-59b5-8dcd-a43f40bb8dd0-attr-1-type" class="er entityLabel">int</text><rect height="21.33333396911621" width="80.61458587646484" y="24" x="47.36167526245117" class="er attributeBoxOdd"/><text style="dominant-baseline: middle; font-size: 10.2px;" transform="translate(52.36167526245117,34.666666984558105)" y="0" x="0" id="text-entity-PedidosItens-5e65edc4-5181-59b5-8dcd-a43f40bb8dd0-attr-1-name" class="er entityLabel">Id_Pedido_Item</text><rect height="21.33333396911621" width="21.68397045135498" y="24" x="127.97626113891602" class="er attributeBoxOdd"/><text style="dominant-baseline: middle; font-size: 10.2px;" transform="translate(132.97626113891602,34.666666984558105)" y="0" x="0" id="text-entity-PedidosItens-5e65edc4-5181-59b5-8dcd-a43f40bb8dd0-attr-1-key" class="er entityLabel">PK</text><rect height="21.33333396911621" width="74.34375" y="24" x="149.660231590271" class="er attributeBoxOdd"/><text style="dominant-baseline: middle; font-size: 10.2px;" transform="translate(154.660231590271,34.666666984558105)" y="0" x="0" id="text-entity-PedidosItens-5e65edc4-5181-59b5-8dcd-a43f40bb8dd0-attr-1-comment" class="er entityLabel"/><rect height="21.33333396911621" width="47.36167526245117" y="45.33333396911621" x="0" class="er attributeBoxEven"/><text style="dominant-baseline: middle; font-size: 10.2px;" transform="translate(5,56.000000953674316)" y="0" x="0" id="text-entity-PedidosItens-5e65edc4-5181-59b5-8dcd-a43f40bb8dd0-attr-2-type" class="er entityLabel">int</text><rect height="21.33333396911621" width="80.61458587646484" y="45.33333396911621" x="47.36167526245117" class="er attributeBoxEven"/><text style="dominant-baseline: middle; font-size: 10.2px;" transform="translate(52.36167526245117,56.000000953674316)" y="0" x="0" id="text-entity-PedidosItens-5e65edc4-5181-59b5-8dcd-a43f40bb8dd0-attr-2-name" class="er entityLabel">Id_Pedido</text><rect height="21.33333396911621" width="21.68397045135498" y="45.33333396911621" x="127.97626113891602" class="er attributeBoxEven"/><text style="dominant-baseline: middle; font-size: 10.2px;" transform="translate(132.97626113891602,56.000000953674316)" y="0" x="0" id="text-entity-PedidosItens-5e65edc4-5181-59b5-8dcd-a43f40bb8dd0-attr-2-key" class="er entityLabel">FK</text><rect height="21.33333396911621" width="74.34375" y="45.33333396911621" x="149.660231590271" class="er attributeBoxEven"/><text style="dominant-baseline: middle; font-size: 10.2px;" transform="translate(154.660231590271,56.000000953674316)" y="0" x="0" id="text-entity-PedidosItens-5e65edc4-5181-59b5-8dcd-a43f40bb8dd0-attr-2-comment" class="er entityLabel"/><rect height="21.33333396911621" width="47.36167526245117" y="66.66666793823242" x="0" class="er attributeBoxOdd"/><text style="dominant-baseline: middle; font-size: 10.2px;" transform="translate(5,77.33333492279053)" y="0" x="0" id="text-entity-PedidosItens-5e65edc4-5181-59b5-8dcd-a43f40bb8dd0-attr-3-type" class="er entityLabel">int</text><rect height="21.33333396911621" width="80.61458587646484" y="66.66666793823242" x="47.36167526245117" class="er attributeBoxOdd"/><text style="dominant-baseline: middle; font-size: 10.2px;" transform="translate(52.36167526245117,77.33333492279053)" y="0" x="0" id="text-entity-PedidosItens-5e65edc4-5181-59b5-8dcd-a43f40bb8dd0-attr-3-name" class="er entityLabel">Id_Produto</text><rect height="21.33333396911621" width="21.68397045135498" y="66.66666793823242" x="127.97626113891602" class="er attributeBoxOdd"/><text style="dominant-baseline: middle; font-size: 10.2px;" transform="translate(132.97626113891602,77.33333492279053)" y="0" x="0" id="text-entity-PedidosItens-5e65edc4-5181-59b5-8dcd-a43f40bb8dd0-attr-3-key" class="er entityLabel">FK</text><rect height="21.33333396911621" width="74.34375" y="66.66666793823242" x="149.660231590271" class="er attributeBoxOdd"/><text style="dominant-baseline: middle; font-size: 10.2px;" transform="translate(154.660231590271,77.33333492279053)" y="0" x="0" id="text-entity-PedidosItens-5e65edc4-5181-59b5-8dcd-a43f40bb8dd0-attr-3-comment" class="er entityLabel"/><rect height="21.33333396911621" width="47.36167526245117" y="88.00000190734863" x="0" class="er attributeBoxEven"/><text style="dominant-baseline: middle; font-size: 10.2px;" transform="translate(5,98.66666889190674)" y="0" x="0" id="text-entity-PedidosItens-5e65edc4-5181-59b5-8dcd-a43f40bb8dd0-attr-4-type" class="er entityLabel">int</text><rect height="21.33333396911621" width="80.61458587646484" y="88.00000190734863" x="47.36167526245117" class="er attributeBoxEven"/><text style="dominant-baseline: middle; font-size: 10.2px;" transform="translate(52.36167526245117,98.66666889190674)" y="0" x="0" id="text-entity-PedidosItens-5e65edc4-5181-59b5-8dcd-a43f40bb8dd0-attr-4-name" class="er entityLabel">Qt_Vendida</text><rect height="21.33333396911621" width="21.68397045135498" y="88.00000190734863" x="127.97626113891602" class="er attributeBoxEven"/><text style="dominant-baseline: middle; font-size: 10.2px;" transform="translate(132.97626113891602,98.66666889190674)" y="0" x="0" id="text-entity-PedidosItens-5e65edc4-5181-59b5-8dcd-a43f40bb8dd0-attr-4-key" class="er entityLabel"/><rect height="21.33333396911621" width="74.34375" y="88.00000190734863" x="149.660231590271" class="er attributeBoxEven"/><text style="dominant-baseline: middle; font-size: 10.2px;" transform="translate(154.660231590271,98.66666889190674)" y="0" x="0" id="text-entity-PedidosItens-5e65edc4-5181-59b5-8dcd-a43f40bb8dd0-attr-4-comment" class="er entityLabel"/><rect height="22" width="47.36167526245117" y="109.33333587646484" x="0" class="er attributeBoxOdd"/><text style="dominant-baseline: middle; font-size: 10.2px;" transform="translate(5,120.33333587646484)" y="0" x="0" id="text-entity-PedidosItens-5e65edc4-5181-59b5-8dcd-a43f40bb8dd0-attr-5-type" class="er entityLabel">numeric</text><rect height="22" width="80.61458587646484" y="109.33333587646484" x="47.36167526245117" class="er attributeBoxOdd"/><text style="dominant-baseline: middle; font-size: 10.2px;" transform="translate(52.36167526245117,120.33333587646484)" y="0" x="0" id="text-entity-PedidosItens-5e65edc4-5181-59b5-8dcd-a43f40bb8dd0-attr-5-name" class="er entityLabel">Vl_Unitario</text><rect height="22" width="21.68397045135498" y="109.33333587646484" x="127.97626113891602" class="er attributeBoxOdd"/><text style="dominant-baseline: middle; font-size: 10.2px;" transform="translate(132.97626113891602,120.33333587646484)" y="0" x="0" id="text-entity-PedidosItens-5e65edc4-5181-59b5-8dcd-a43f40bb8dd0-attr-5-key" class="er entityLabel"/><rect height="22" width="74.34375" y="109.33333587646484" x="149.660231590271" class="er attributeBoxOdd"/><text style="dominant-baseline: middle; font-size: 10.2px;" transform="translate(154.660231590271,120.33333587646484)" y="0" x="0" id="text-entity-PedidosItens-5e65edc4-5181-59b5-8dcd-a43f40bb8dd0-attr-5-comment" class="er entityLabel">numeric(18,2)</text></g><rect height="14" width="17.71875" y="139.04193115234375" x="101.5833969116211" class="er relationshipLabelBox"/><text style="text-anchor: middle; dominant-baseline: middle; font-size: 12px;" y="146.04193115234375" x="110.4427719116211" id="rel1" class="er relationshipLabel">has</text><rect height="14" width="17.71875" y="124.82160949707031" x="286.8663330078125" class="er relationshipLabelBox"/><text style="text-anchor: middle; dominant-baseline: middle; font-size: 12px;" y="131.8216094970703" x="295.7257080078125" id="rel2" class="er relationshipLabel">has</text><rect height="14" width="17.71875" y="132.06239318847656" x="480.622802734375" class="er relationshipLabelBox"/><text style="text-anchor: middle; dominant-baseline: middle; font-size: 12px;" y="139.06239318847656" x="489.482177734375" id="rel3" class="er relationshipLabel">has</text><rect height="14" width="33.875" y="396.9635314941406" x="120.46292114257812" class="er relationshipLabelBox"/><text style="text-anchor: middle; dominant-baseline: middle; font-size: 12px;" y="403.9635314941406" x="137.40042114257812" id="rel4" class="er relationshipLabel">places</text><rect height="14" width="51.395835876464844" y="398.4770202636719" x="392.0106391906738" class="er relationshipLabelBox"/><text style="text-anchor: middle; dominant-baseline: middle; font-size: 12px;" y="405.4770202636719" x="417.70855712890625" id="rel5" class="er relationshipLabel">processes</text><rect height="14" width="44.84375" y="604.5593872070312" x="282.1897277832031" class="er relationshipLabelBox"/><text style="text-anchor: middle; dominant-baseline: middle; font-size: 12px;" y="611.5593872070312" x="304.6116027832031" id="rel6" class="er relationshipLabel">contains</text><rect height="14" width="44.10416793823242" y="604.9618530273438" x="545.3880405426025" class="er relationshipLabelBox"/><text style="text-anchor: middle; dominant-baseline: middle; font-size: 12px;" y="611.9618530273438" x="567.4401245117188" id="rel7" class="er relationshipLabel">includes</text></svg>